<svg xmlns="http://www.w3.org/2000/svg" width="32" height="18" viewBox="0 0 32 18" fill="none">
  <defs><linearGradient id="wizGrad" x1="0" y1="0" x2="32" y2="0" gradientUnits="userSpaceOnUse"><stop offset="0" stop-color="#406AFB"></stop><stop offset="0.2576" stop-color="#078EFB"></stop><stop offset="0.7149" stop-color="#939AFF"></stop><stop offset="0.9981" stop-color="#D698FC"></stop></linearGradient></defs>
  <path d="M 24.424 5.15 C 23.851 4.896 23.239 4.769 22.589 4.769 C 23.239 4.769 23.851 4.646 24.424 4.399 C 24.996 4.145 25.494 3.803 25.918 3.374 C 26.341 2.945 26.675 2.44 26.918 1.86 C 27.169 1.28 27.294 0.66 27.294 0 C 27.294 0.66 27.416 1.28 27.659 1.86 C 27.91 2.44 28.247 2.945 28.671 3.374 C 29.094 3.803 29.592 4.145 30.165 4.399 C 30.737 4.646 31.349 4.769 32 4.769 C 31.349 4.769 30.737 4.896 30.165 5.15 C 29.592 5.397 29.094 5.735 28.671 6.164 C 28.247 6.593 27.91 7.098 27.659 7.678 C 27.416 8.258 27.294 8.878 27.294 9.538 C 27.294 8.878 27.169 8.258 26.918 7.678 C 26.675 7.098 26.341 6.593 25.918 6.164 C 25.494 5.735 24.996 5.397 24.424 5.15 Z M 6.312 16.042 L 0.518 5.872 C -0.548 4 0.084 1.606 1.932 0.525 C 3.779 -0.556 6.142 0.086 7.208 1.958 L 13.002 12.128 C 13.514 13.027 13.653 14.095 13.388 15.098 C 13.123 16.101 12.476 16.956 11.588 17.475 C 9.741 18.556 7.379 17.914 6.312 16.042 Z M 18.135 16.042 L 12.341 5.872 C 11.274 4 11.907 1.606 13.755 0.525 C 15.602 -0.556 17.965 0.086 19.031 1.958 L 24.825 12.128 C 25.337 13.027 25.476 14.095 25.211 15.098 C 24.946 16.101 24.298 16.956 23.411 17.475 C 21.564 18.556 19.201 17.914 18.135 16.042 Z" fill="url(#wizGrad)" fill-rule="evenodd"></path>
</svg>