<svg xmlns="http://www.w3.org/2000/svg" width="38" height="18" viewBox="0 0 38 18" fill="none">
  <path d="M 14.109 18 L 10.09 7.692 L 6.145 17.974 L 5.727 17.974 L 0 0 L 3.392 0 L 6.379 10.424 L 9.955 0 L 10.373 0 L 13.999 10.385 L 16.813 0 L 20.181 0 L 14.503 18 L 14.109 18 Z M 22.244 3.427 L 22.244 0 L 25.685 0 L 25.685 3.427 L 22.244 3.427 Z M 22.367 18 L 22.404 5.128 L 25.599 5.128 L 25.562 18 L 22.367 18 Z M 27.725 17.961 L 33.268 8.003 L 28.758 8.003 L 28.758 5.128 L 38 5.128 L 32.469 15.306 L 37.508 15.306 L 37.508 17.961 L 27.725 17.961 Z" fill="currentColor" fill-rule="nonzero"></path>
</svg>